<?xml version="1.0" encoding="UTF-8" standalone="no"?>
<!-- Created with Inkscape (http://www.inkscape.org/) -->

<svg
   xmlns:dc="http://purl.org/dc/elements/1.1/"
   xmlns:cc="http://creativecommons.org/ns#"
   xmlns:rdf="http://www.w3.org/1999/02/22-rdf-syntax-ns#"
   xmlns:svg="http://www.w3.org/2000/svg"
   xmlns="http://www.w3.org/2000/svg"
   xmlns:sodipodi="http://sodipodi.sourceforge.net/DTD/sodipodi-0.dtd"
   xmlns:inkscape="http://www.inkscape.org/namespaces/inkscape"
   width="210mm"
   height="297mm"
   viewBox="0 0 210 297"
   version="1.1"
   id="svg8"
   inkscape:version="0.92.1 r15371"
   sodipodi:docname="LOGOCP.svg">
  <defs
     id="defs2">
    <inkscape:perspective
       sodipodi:type="inkscape:persp3d"
       inkscape:vp_x="39.28862 : 563.26435 : 1"
       inkscape:vp_y="0 : 3779.5275 : 0"
       inkscape:vp_z="832.98943 : 563.26435 : 1"
       inkscape:persp3d-origin="436.13902 : 376.17774 : 1"
       id="perspective4575" />
    <inkscape:perspective
       sodipodi:type="inkscape:persp3d"
       inkscape:vp_x="0 : 148.5 : 1"
       inkscape:vp_y="0 : 1000 : 0"
       inkscape:vp_z="210 : 148.5 : 1"
       inkscape:persp3d-origin="105 : 99 : 1"
       id="perspective4517" />
  </defs>
  <sodipodi:namedview
     id="base"
     pagecolor="#ffffff"
     bordercolor="#666666"
     borderopacity="1.0"
     inkscape:pageopacity="0.0"
     inkscape:pageshadow="2"
     inkscape:zoom="2.8"
     inkscape:cx="303.89941"
     inkscape:cy="1042.621"
     inkscape:document-units="mm"
     inkscape:current-layer="layer1"
     showgrid="false"
     inkscape:window-width="1600"
     inkscape:window-height="847"
     inkscape:window-x="-8"
     inkscape:window-y="-8"
     inkscape:window-maximized="1" />
  <metadata
     id="metadata5">
    <rdf:RDF>
      <cc:Work
         rdf:about="">
        <dc:format>image/svg+xml</dc:format>
        <dc:type
           rdf:resource="http://purl.org/dc/dcmitype/StillImage" />
        <dc:title></dc:title>
      </cc:Work>
    </rdf:RDF>
  </metadata>
  <g
     inkscape:label="Capa 1"
     inkscape:groupmode="layer"
     id="layer1"
     style="display:inline">
    <rect
       style="opacity:0.67040064;fill:#ffff00;stroke-width:0.37499505"
       id="rect4577"
       width="17.895931"
       height="20.045218"
       x="46.689953"
       y="-32.93771"
       transform="scale(1,-1)" />
    <text
       xml:space="preserve"
       style="font-style:normal;font-weight:normal;font-size:22.05989265px;line-height:1.25;font-family:sans-serif;letter-spacing:0px;word-spacing:0px;fill:#000080;fill-opacity:1;stroke:none;stroke-width:0.55149728"
       x="45.536339"
       y="30.748207"
       id="text3682"
       transform="scale(1.0222209,0.97826213)"><tspan
         sodipodi:role="line"
         id="tspan3680"
         x="45.536339"
         y="30.748207"
         style="fill:#000080;stroke-width:0.55149728">C</tspan></text>
    <text
       xml:space="preserve"
       style="font-style:normal;font-weight:normal;font-size:21.07174873px;line-height:1.25;font-family:sans-serif;letter-spacing:0px;word-spacing:0px;fill:#d40000;fill-opacity:1;stroke:none;stroke-width:0.52679372"
       x="46.609642"
       y="34.99831"
       id="text3686"
       transform="scale(1.0756531,0.92966775)"><tspan
         sodipodi:role="line"
         id="tspan3684"
         x="46.609642"
         y="34.99831"
         style="fill:#d40000;stroke-width:0.52679372">P</tspan></text>
    <ellipse
       style="opacity:0;fill:#ff0000;stroke-width:0.26458332"
       id="path4499"
       cx="56.66114"
       cy="63.940971"
       rx="0.13363476"
       ry="0.4009043" />
    <path
       style="opacity:0;fill:#ff0000;stroke-width:0.26458332"
       id="path4513"
       d="m 36.029272,1.713893 c 0.147519,0.069044 0.296731,0.1345803 0.442558,0.2071315 1.137587,0.5659696 0.299197,0.1900012 1.723076,0.8752392 2.118796,1.0196669 4.266141,1.9723987 6.419072,2.9171958 1.268039,0.5235287 2.531694,1.0578092 3.804118,1.5705857 3.411175,1.3746742 6.843723,2.6958636 10.256308,4.0670328 6.07776,2.442031 12.130114,4.942427 18.170385,7.475424 5.637606,2.401427 11.188639,5.020941 16.523567,8.0418 1.506702,0.853157 3.001391,1.730227 4.456491,2.668688 3.244443,2.0925 4.089563,2.883652 7.000963,5.216451 2.4094,2.037366 4.47438,4.401098 6.14375,7.076517 1.23972,1.986856 2.19545,4.133963 3.17546,6.254435 1.03002,2.342306 2.05762,4.685625 3.08911,7.027288 0.31086,0.700876 0.57701,1.420865 0.91338,2.110071 0.19485,0.354129 0.31925,0.729697 0.38923,1.126233 0.11084,0.60979 -0.0818,1.164542 -0.38144,1.687351 -0.69783,1.017503 -1.86735,1.705523 -3.02052,2.079019 -0.27566,0.05227 -0.57553,0.140351 -0.85988,0.09382 -0.44841,-0.07338 -0.87219,-0.343971 -1.26226,-0.555836 -1.03969,-0.630314 -2.07136,-1.307473 -2.95217,-2.152558 -0.21873,-0.209859 -0.42238,-0.43489 -0.63357,-0.652332 -1.10302,-1.190001 -2.09811,-2.475802 -3.21617,-3.652285 -0.82757,-0.870805 -1.41338,-1.408991 -2.2842,-2.239703 -0.40663,-0.381318 -0.81061,-0.765479 -1.21989,-1.143953 -1.48021,-1.368795 -2.968631,-2.629138 -4.60162,-3.817236 -1.414251,-1.028951 -2.293247,-1.581023 -3.748559,-2.535891 -2.62214,-1.761093 -5.403313,-3.268448 -8.055178,-4.981202 -0.797738,-0.524261 -1.520116,-1.139645 -2.079025,-1.915046 -0.202747,-0.257257 -0.207888,-0.569915 -0.278926,-0.870855 -0.13385,-0.24938 -0.227613,-0.512191 -0.316741,-0.779674 -0.114858,-0.315113 -0.141652,-0.650457 -0.164478,-0.982244 -0.004,-0.355622 -0.03158,-0.707655 -0.07018,-1.060948 -0.06063,-0.472183 -0.02577,-0.945383 0.008,-1.417669 0.03433,-0.398309 0.02503,-0.798947 0.05729,-1.197092 0.0907,-0.405746 0.142928,-0.820515 0.238945,-1.224748 0.268738,-0.788863 0.892974,-0.742278 1.938902,-1.163762 0.06216,-0.02506 0.354234,0.396553 0.382711,0.433719 0.27128,0.331075 0.537279,0.66703 0.802601,1.003104 0.264699,0.342921 0.58607,0.611592 0.932034,0.868362 0.403045,0.255455 0.757881,0.397135 1.100765,0.741088 0.201189,0.196717 0.304297,0.471704 0.502094,0.66988 0.121838,0.122076 0.167892,0.131998 0.31863,0.212045 0.34413,0.150402 0.719717,0.166512 1.089353,0.175958 0.380915,-0.0154 0.755377,0.01736 1.132141,0.06755 0.319368,0.0626 0.472583,0.299633 0.618075,0.56556 0.128275,0.27803 0.159803,0.586529 0.231471,0.881528 0.07559,0.211498 0.06955,0.458777 0.193453,0.652971 0.01355,0.02122 0.03042,0.05697 0.05503,0.05171 0.02088,-0.0044 0.0016,-0.04264 0.0024,-0.06396 -0.565952,0.314182 -1.131901,0.628367 -1.69785,0.942549 0,0 1.813881,-0.826289 1.813881,-0.826289 v 0 c -0.581129,0.346602 -1.162259,0.693206 -1.743388,1.039808 -0.240196,-0.227648 -0.274709,-0.552996 -0.352306,-0.86038 -0.07503,-0.277413 -0.114442,-0.565291 -0.217521,-0.833761 -0.130281,-0.241757 -0.222981,-0.37442 -0.512686,-0.412678 -0.3726,-0.04983 -0.744392,-0.05631 -1.120071,-0.05481 -0.391769,-0.02477 -0.785411,-0.06816 -1.136555,-0.259096 -0.174681,-0.11072 -0.21399,-0.120057 -0.356177,-0.271685 -0.186203,-0.198564 -0.297738,-0.455255 -0.489185,-0.650129 -0.321689,-0.298717 -0.722199,-0.470823 -1.076656,-0.726228 -0.3594,-0.267179 -0.70381,-0.541343 -0.974977,-0.902253 -0.265697,-0.334981 -0.509973,-0.687491 -0.797655,-1.004326 -0.03583,-0.04243 -0.174842,-0.2148 -0.232984,-0.258758 -0.02719,-0.02056 -0.121502,-0.02471 -0.09276,-0.04303 0.533458,-0.340239 1.105159,-0.617093 1.64506,-0.947013 0.03211,-0.01963 -0.0819,-0.01159 -0.112408,0.01045 -0.03768,0.0272 -0.04632,0.08058 -0.06948,0.120864 -0.139406,0.379926 -0.13426,0.803119 -0.25551,1.191218 -0.04726,0.396505 -0.02653,0.798124 -0.06749,1.195668 -0.0311,0.460759 -0.0905,0.922576 -0.0186,1.382966 0.04175,0.355418 0.08888,0.708557 0.07984,1.067494 0.01648,0.314764 0.03795,0.633243 0.145722,0.932439 0.09374,0.269679 0.176043,0.541115 0.323334,0.789083 0.08475,0.274216 0.04839,0.578321 0.22847,0.825169 0.498044,0.77325 1.163752,1.40153 1.912184,1.934281 2.545786,1.804133 5.239572,3.385437 7.829769,5.123434 1.874801,1.250302 3.765349,2.485467 5.555091,3.857403 1.13422,0.869434 1.85877,1.507538 2.90722,2.456357 0.41452,0.375132 0.82063,0.759447 1.23095,1.139169 0.14124,0.133998 2.19201,2.077437 2.33526,2.222241 1.14342,1.155837 2.14412,2.446782 3.29569,3.595486 0.51128,0.504926 0.70955,0.72862 1.26213,1.17012 0.73412,0.586541 1.5391,1.088784 2.35947,1.543523 0.78051,0.383757 1.22128,0.592514 2.07296,0.300768 0.73483,-0.308271 0.42963,-0.193429 -1.16732,0.732375 -0.0838,0.04856 0.16655,-0.09946 0.24402,-0.157528 0.24916,-0.186772 0.45835,-0.422137 0.641,-0.67252 0.31999,-0.48364 0.51564,-0.960644 0.41957,-1.549858 -0.0631,-0.382185 -0.18165,-0.739296 -0.36862,-1.080098 -0.30041,-0.713748 -0.52435,-1.456132 -0.81076,-2.175581 -0.91758,-2.398276 -1.8753,-4.781093 -2.84233,-7.159808 -0.92996,-2.140495 -1.83637,-4.296383 -3.03645,-6.30541 -1.60161,-2.68121 -3.58093,-5.085656 -5.90014,-7.180447 C 100.9338,32.8862 100.35113,32.26027 97.054568,30.034372 90.574975,25.659232 83.477784,22.287088 76.330314,19.169957 74.307765,18.320318 72.290413,17.458205 70.26267,16.621041 66.105005,14.904527 62.255738,13.367926 58.053332,11.768417 52.869102,9.7952104 52.482683,9.7144847 47.484061,7.9112149 46.154358,7.4315195 44.828057,6.9424409 43.500055,6.4580536 41.235058,5.581116 38.972773,4.6998268 36.730537,3.7658016 36.115654,3.5096661 35.514417,3.2205882 34.893818,2.9786291 34.735735,2.9169958 34.571942,2.8711543 34.411004,2.8174169 c 0,0 1.618319,-1.103516 1.618319,-1.103516 z"
       inkscape:connector-curvature="0" />
    <g
       sodipodi:type="inkscape:box3d"
       id="g4519"
       style="opacity:0;fill:#ff0000"
       inkscape:perspectiveID="#perspective4575"
       inkscape:corner0="0.54670022 : 0.20323039 : 0 : 1"
       inkscape:corner7="0.19774956 : 0.15894366 : 0.25 : 1">
      <path
         sodipodi:type="inkscape:box3dside"
         id="path4521"
         style="fill:#353564;fill-rule:evenodd;stroke:none;stroke-linejoin:round"
         inkscape:box3dsidetype="6"
         d="m 295.86737,-641.92098 v 108.21936 l 74.7373,37.21228 v -93.16129 z"
         points="295.86737,-533.70162 370.60467,-496.48934 370.60467,-589.65063 295.86737,-641.92098 " />
      <path
         sodipodi:type="inkscape:box3dside"
         id="path4531"
         style="fill:#e9e9ff;fill-rule:evenodd;stroke:none;stroke-linejoin:round"
         inkscape:box3dsidetype="11"
         d="m 370.60467,-589.65063 79.85701,-77.9457 v 115.61593 l -79.85701,55.49106 z"
         points="450.46168,-667.59633 450.46168,-551.9804 370.60467,-496.48934 370.60467,-589.65063 " />
      <path
         sodipodi:type="inkscape:box3dside"
         id="path4523"
         style="fill:#4d4d9f;fill-rule:evenodd;stroke:none;stroke-linejoin:round"
         inkscape:box3dsidetype="5"
         d="m 295.86737,-641.92098 74.75129,-109.44328 79.84302,83.76793 -79.85701,77.9457 z"
         points="370.61866,-751.36426 450.46168,-667.59633 370.60467,-589.65063 295.86737,-641.92098 " />
      <path
         sodipodi:type="inkscape:box3dside"
         id="path4529"
         style="fill:#afafde;fill-rule:evenodd;stroke:none;stroke-linejoin:round"
         inkscape:box3dsidetype="13"
         d="m 295.86737,-533.70162 74.75129,-77.9148 79.84302,59.63602 -79.85701,55.49106 z"
         points="370.61866,-611.61642 450.46168,-551.9804 370.60467,-496.48934 295.86737,-533.70162 " />
      <path
         sodipodi:type="inkscape:box3dside"
         id="path4527"
         style="fill:#d7d7ff;fill-rule:evenodd;stroke:none;stroke-linejoin:round"
         inkscape:box3dsidetype="14"
         d="m 370.61866,-751.36426 v 139.74784 l 79.84302,59.63602 v -115.61593 z"
         points="370.61866,-611.61642 450.46168,-551.9804 450.46168,-667.59633 370.61866,-751.36426 " />
      <path
         sodipodi:type="inkscape:box3dside"
         id="path4525"
         style="fill:#8686bf;fill-rule:evenodd;stroke:none;stroke-linejoin:round"
         inkscape:box3dsidetype="3"
         d="m 295.86737,-641.92098 74.75129,-109.44328 v 139.74784 l -74.75129,77.9148 z"
         points="370.61866,-751.36426 370.61866,-611.61642 295.86737,-533.70162 295.86737,-641.92098 " />
    </g>
  </g>
</svg>
