<?xml version="1.0" standalone="no"?>
<!DOCTYPE svg PUBLIC "-//W3C//DTD SVG 20010904//EN"
 "http://www.w3.org/TR/2001/REC-SVG-20010904/DTD/svg10.dtd">
<svg version="1.0" xmlns="http://www.w3.org/2000/svg"
 width="200px" height="100px" viewBox="0 0 100px 100px"
 preserveAspectRatio="xMidYMid meet">
<metadata>
Created by potrace 1.14, written by Peter Selinger 2001-2017
</metadata>
<g transform="translate(0.000000,100) scale(0.100000,-0.100000)"
fill="#000000" stroke="none">
<path d="M9765 10684 c-22 -2 -103 -9 -180 -15 -1133 -91 -2174 -571 -2823
-1302 -224 -252 -378 -482 -532 -792 -221 -446 -343 -897 -391 -1450 -16 -193
-14 -629 5 -825 51 -526 163 -933 376 -1365 665 -1353 2118 -2054 4050 -1955
558 29 1061 111 1435 235 190 63 208 72 202 98 -3 12 -60 310 -127 662 -68
352 -124 641 -125 643 -1 1 -26 -7 -55 -18 -150 -59 -494 -139 -750 -175 -312
-43 -732 -58 -990 -35 -1106 100 -1856 708 -2101 1705 -62 253 -73 366 -73
730 0 294 2 346 22 475 78 496 240 879 508 1200 472 566 1247 854 2157 802
116 -7 264 -19 327 -27 276 -36 622 -120 840 -204 57 -22 105 -39 105 -38 6 8
365 1310 365 1321 0 15 -149 77 -300 124 -266 84 -614 149 -1011 188 -144 14
-833 28 -934 18z"/>
<path d="M15805 10679 c-60 -5 -184 -20 -275 -33 -1591 -231 -2748 -1343
-3074 -2958 -110 -543 -114 -1206 -11 -1763 182 -990 702 -1824 1455 -2334
422 -286 872 -466 1392 -556 430 -74 926 -83 1385 -25 1700 217 2848 1323
3132 3021 53 314 65 478 65 864 0 265 -4 387 -17 502 -58 513 -175 934 -372
1340 -182 375 -368 645 -634 917 -272 278 -533 467 -891 645 -396 197 -785
308 -1280 367 -161 19 -710 27 -875 13z m540 -1340 c720 -88 1281 -635 1525
-1488 229 -799 165 -1786 -161 -2480 -191 -405 -510 -743 -854 -902 -479 -221
-1057 -210 -1515 27 -149 78 -277 172 -406 299 -382 377 -615 923 -696 1630
-17 146 -16 646 1 795 63 557 213 1000 462 1365 296 435 713 693 1224 758 68
9 336 6 420 -4z"/>
<path d="M37670 10684 c-721 -50 -1324 -205 -1880 -484 -631 -317 -1122 -756
-1473 -1317 -93 -149 -255 -479 -317 -646 -337 -912 -340 -2065 -8 -2967 27
-74 94 -225 148 -335 665 -1353 2118 -2054 4050 -1955 558 29 1061 111 1435
235 190 63 208 72 202 98 -3 12 -60 310 -127 662 -68 352 -124 641 -125 643
-1 1 -26 -7 -55 -18 -150 -59 -494 -139 -750 -175 -312 -43 -732 -58 -990 -35
-1176 106 -1948 788 -2139 1892 -35 201 -44 353 -38 626 9 398 60 678 183 996
364 943 1302 1466 2507 1398 116 -7 264 -19 327 -27 276 -36 622 -120 840
-204 57 -22 105 -39 105 -38 6 8 365 1309 365 1320 0 9 -41 30 -102 55 -319
126 -705 208 -1209 258 -146 14 -816 27 -949 18z"/>
<path d="M57000 10679 c-898 -66 -1705 -338 -2341 -791 -820 -584 -1333 -1452
-1478 -2498 -35 -250 -44 -434 -38 -755 6 -314 18 -452 63 -705 286 -1601
1441 -2656 3175 -2900 902 -127 2032 -36 2741 220 49 18 90 36 94 41 4 8 -242
1319 -250 1326 -1 2 -40 -11 -87 -28 -195 -71 -553 -147 -884 -186 -192 -22
-754 -25 -915 -5 -962 124 -1617 605 -1922 1412 -165 436 -213 1025 -127 1550
175 1065 880 1751 1969 1914 562 85 1306 4 1850 -202 103 -39 105 -39 112 -18
12 33 357 1276 360 1294 2 13 -25 28 -114 64 -341 137 -835 232 -1393 268
-177 11 -651 11 -815 -1z"/>
<path d="M22675 10613 c-435 -17 -787 -40 -1105 -73 -181 -19 -438 -53 -502
-66 l-28 -6 0 -3689 0 -3689 875 0 875 0 0 1345 0 1345 23 -5 c132 -31 707
-46 994 -26 921 65 1647 330 2164 793 269 240 484 605 588 998 65 246 91 459
91 746 0 384 -63 677 -215 992 -169 350 -394 603 -747 841 -407 273 -1002 439
-1758 491 -126 8 -1058 11 -1255 3z m1110 -1283 c593 -67 970 -340 1084 -786
59 -231 48 -488 -30 -712 -160 -457 -596 -737 -1239 -793 -229 -20 -747 4
-801 36 -5 4 -9 442 -9 1106 l0 1099 23 9 c32 12 166 31 282 40 148 12 586 12
690 1z"/>
<path d="M0 6830 l0 -3740 2485 0 2485 0 0 695 0 695 -1605 0 -1605 0 0 890 0
890 1440 0 1440 0 0 685 0 685 -1440 0 -1440 0 2 778 3 777 1523 3 1522 2 0
690 0 690 -2405 0 -2405 0 0 -3740z"/>
<path d="M28837 10563 c-4 -6 -2350 -7346 -2382 -7450 l-6 -23 915 0 c862 0
915 1 920 18 24 80 536 1893 536 1897 0 3 509 5 1130 5 622 0 1130 -2 1130 -5
0 -5 538 -1722 576 -1837 l26 -78 950 0 c756 0 949 3 945 13 -2 6 -551 1689
-1218 3739 l-1214 3728 -1152 0 c-633 0 -1154 -3 -1156 -7z m1112 -1290 c6
-21 67 -256 136 -523 179 -688 226 -852 489 -1705 128 -418 232 -763 229 -767
-6 -10 -1710 -10 -1717 0 -2 4 101 358 230 787 238 792 332 1144 515 1933 62
266 75 312 90 312 13 0 21 -12 28 -37z"/>
<path d="M41020 6830 l0 -3740 880 0 880 0 0 3740 0 3740 -880 0 -880 0 0
-3740z"/>
<path d="M44320 6830 l0 -3740 880 0 880 0 0 1505 0 1505 1405 0 1405 0 0 685
0 685 -1405 0 -1405 0 2 858 3 857 1498 3 1497 2 0 690 0 690 -2380 0 -2380 0
0 -3740z"/>
<path d="M50430 6830 l0 -3740 880 0 880 0 0 3740 0 3740 -880 0 -880 0 0
-3740z"/>
<path d="M28043 1389 c-220 -37 -353 -185 -353 -393 0 -90 13 -135 53 -188 54
-71 146 -110 397 -169 338 -78 392 -114 394 -254 2 -147 -128 -235 -350 -235
-215 0 -335 89 -368 273 l-7 37 -84 0 -85 0 0 -30 c0 -49 21 -133 47 -184 52
-104 153 -182 288 -222 92 -28 314 -26 418 4 200 57 294 149 317 311 27 193
-52 331 -225 392 -30 10 -134 37 -232 60 -232 54 -295 74 -334 106 -80 68 -77
196 7 275 119 111 404 96 512 -26 28 -32 62 -116 62 -153 0 -10 22 -13 89 -13
l89 0 -5 48 c-8 78 -31 148 -66 194 -100 132 -342 204 -564 167z"/>
<path d="M31130 1386 c-178 -38 -322 -152 -405 -321 -59 -118 -70 -178 -69
-365 1 -186 17 -267 76 -388 42 -85 150 -196 233 -239 149 -77 357 -90 530
-33 160 53 305 213 350 386 25 97 28 94 -74 94 l-89 0 -11 -46 c-17 -65 -65
-157 -107 -204 -20 -22 -66 -54 -102 -72 -64 -32 -72 -33 -182 -32 -95 0 -125
4 -172 23 -123 48 -217 174 -254 338 -21 95 -15 307 11 393 69 224 243 345
472 326 152 -12 252 -80 308 -208 l29 -68 88 0 c101 0 99 -3 67 94 -45 136
-175 262 -317 307 -86 27 -287 35 -382 15z"/>
<path d="M32535 1385 c-222 -49 -399 -221 -465 -455 -43 -154 -37 -375 16
-520 38 -105 72 -159 148 -235 126 -125 250 -169 471 -169 229 0 346 44 482
180 91 91 148 192 180 319 27 110 25 346 -5 450 -32 112 -77 189 -152 266 -71
72 -167 126 -275 155 -87 23 -311 28 -400 9z m333 -162 c74 -18 165 -74 210
-129 18 -21 48 -69 66 -106 87 -172 70 -452 -39 -633 -51 -84 -80 -111 -163
-153 -68 -33 -81 -36 -186 -40 -130 -5 -201 7 -285 49 -159 80 -252 285 -238
524 7 112 24 183 61 259 98 201 326 292 574 229z"/>
<path d="M38341 1384 c-207 -44 -370 -197 -440 -412 -44 -137 -47 -364 -6
-523 79 -305 345 -479 669 -439 110 14 169 32 241 75 138 83 244 239 268 398
l6 38 -91 -3 -90 -3 -17 -55 c-68 -215 -202 -310 -420 -298 -156 9 -267 78
-335 207 -55 105 -70 175 -70 326 1 206 45 339 145 436 156 152 452 158 590
12 38 -39 89 -130 89 -158 0 -12 16 -15 91 -15 l92 0 -6 45 c-16 116 -129 260
-250 320 -40 19 -103 42 -142 50 -87 18 -239 18 -324 -1z"/>
<path d="M49821 1389 c-170 -33 -305 -126 -398 -274 -78 -124 -114 -320 -94
-512 24 -239 108 -399 261 -502 193 -129 507 -128 701 1 116 77 212 226 237
366 l9 53 -90 -3 -90 -3 -22 -65 c-12 -36 -30 -80 -39 -99 -32 -60 -103 -127
-169 -157 -57 -27 -71 -29 -177 -28 -149 0 -210 22 -291 103 -93 94 -136 204
-145 381 -13 232 53 419 184 515 83 61 142 79 267 79 130 0 196 -21 268 -85
42 -37 107 -143 107 -176 0 -10 22 -13 91 -13 l92 0 -7 43 c-18 119 -138 271
-258 327 -36 17 -96 37 -134 45 -75 16 -232 18 -303 4z"/>
<path d="M53465 1385 c-331 -72 -521 -386 -476 -785 23 -201 75 -325 181 -429
114 -113 246 -164 425 -164 190 -1 321 48 434 162 89 89 132 174 165 324 l7
28 -92 -3 -91 -3 -17 -55 c-63 -199 -193 -300 -385 -300 -87 1 -144 13 -211
46 -94 47 -155 127 -202 261 -24 71 -27 91 -27 223 1 254 60 396 207 491 151
98 394 87 513 -23 40 -37 104 -144 104 -175 0 -10 22 -13 91 -13 l92 0 -6 40
c-9 72 -62 167 -131 236 -73 73 -154 116 -262 139 -84 18 -238 18 -319 0z"/>
<path d="M54894 1390 c-192 -35 -343 -147 -433 -319 -50 -97 -69 -162 -82
-282 -27 -249 56 -507 207 -637 57 -50 184 -114 264 -133 82 -21 309 -18 390
4 147 40 254 111 340 225 104 139 145 292 138 516 -4 124 -8 151 -34 226 -69
198 -210 330 -409 385 -71 19 -305 28 -381 15z m289 -161 c232 -45 380 -297
347 -591 -25 -220 -132 -392 -279 -450 -79 -30 -253 -37 -351 -13 -163 40
-273 163 -321 355 -18 75 -16 258 5 344 65 274 300 413 599 355z"/>
<path d="M56843 1389 c-167 -28 -299 -132 -340 -269 -24 -81 -21 -193 7 -258
43 -101 132 -153 340 -202 261 -61 310 -74 366 -100 80 -36 107 -74 112 -156
2 -34 -1 -78 -7 -97 -16 -48 -76 -100 -147 -128 -51 -20 -77 -23 -189 -23
-112 -1 -138 2 -186 22 -98 39 -166 129 -184 240 l-7 42 -85 0 -86 0 6 -62 c8
-104 41 -174 116 -249 111 -111 210 -144 421 -143 149 0 220 14 325 64 84 40
139 91 172 158 26 53 28 66 28 177 0 105 -3 125 -23 162 -53 100 -146 156
-329 200 -395 93 -435 107 -471 172 -41 73 -21 171 48 238 100 98 376 92 488
-11 30 -27 58 -80 73 -140 l11 -46 86 0 85 0 -6 66 c-6 86 -53 181 -111 228
-120 99 -329 146 -513 115z"/>
<path d="M20820 700 l0 -660 510 0 510 0 0 75 0 75 -420 0 -420 0 0 230 0 230
380 0 380 0 0 75 0 75 -380 0 -380 0 0 205 0 205 410 0 410 0 0 75 0 75 -500
0 -500 0 0 -660z"/>
<path d="M22090 700 l0 -660 85 0 85 0 0 553 c0 336 4 546 10 536 7 -12 298
-820 377 -1046 l15 -43 94 0 c52 0 94 2 94 4 0 11 383 1082 389 1089 4 4 6
-240 3 -543 l-5 -550 92 0 91 0 0 660 0 660 -134 0 -134 0 -11 -32 c-126 -361
-376 -1065 -381 -1071 -4 -5 -23 36 -42 90 -20 54 -109 304 -198 556 l-163
457 -133 0 -134 0 0 -660z"/>
<path d="M23730 700 l0 -660 90 0 90 0 0 279 0 279 278 4 c263 4 280 5 337 27
74 30 156 105 190 175 48 99 50 263 4 360 -30 64 -93 124 -169 160 l-65 31
-377 3 -378 3 0 -661z m726 483 c84 -45 121 -120 111 -225 -8 -86 -40 -136
-111 -173 l-60 -30 -243 -3 -243 -4 0 232 0 231 253 -3 c238 -3 254 -4 293
-25z"/>
<path d="M25020 700 l0 -660 95 0 95 0 0 285 0 285 240 0 c268 0 325 -8 375
-51 51 -45 63 -92 75 -294 5 -99 13 -190 16 -203 6 -21 11 -22 120 -22 90 0
114 3 114 14 0 7 -7 19 -16 27 -37 30 -46 70 -55 248 -5 97 -14 193 -20 214
-12 47 -60 102 -111 128 l-39 20 48 32 c103 69 149 170 141 311 -9 171 -104
279 -276 315 -34 7 -190 11 -427 11 l-375 0 0 -660z m752 500 c89 -25 138
-101 138 -212 0 -87 -23 -144 -70 -178 -62 -44 -106 -50 -377 -50 l-253 0 0
225 0 225 263 0 c149 0 278 -5 299 -10z"/>
<path d="M26420 700 l0 -660 510 0 510 0 0 75 0 75 -420 0 -420 0 0 230 0 230
380 0 380 0 0 75 0 75 -380 0 -380 0 0 205 0 205 410 0 410 0 0 75 0 75 -500
0 -500 0 0 -660z"/>
<path d="M29380 1338 c-6 -13 -121 -304 -256 -648 -135 -344 -248 -631 -251
-637 -4 -10 18 -13 90 -13 l95 0 35 93 c20 50 55 140 77 200 l41 107 270 0
270 0 18 -42 c10 -24 44 -114 76 -200 l57 -158 100 0 c78 0 99 3 96 14 -2 7
-113 304 -248 659 l-245 647 -108 0 c-102 0 -108 -1 -117 -22z m215 -455 c55
-152 101 -282 103 -290 3 -10 -37 -13 -212 -13 -119 0 -216 3 -216 8 0 14 213
572 219 572 3 0 51 -125 106 -277z"/>
<path d="M33610 700 l0 -660 91 0 91 0 -4 554 c-1 305 -1 552 2 549 3 -2 93
-250 201 -551 l195 -547 95 0 94 0 195 551 195 552 3 -554 2 -554 85 0 85 0 0
660 0 661 -132 -3 -132 -3 -195 -553 c-107 -303 -197 -550 -200 -547 -3 4 -94
252 -201 553 l-195 547 -138 3 -137 3 0 -661z"/>
<path d="M35250 700 l0 -660 510 0 510 0 0 75 0 75 -420 0 -420 0 0 230 0 230
380 0 380 0 0 75 0 75 -380 0 -380 0 2 203 3 202 413 3 412 2 0 75 0 75 -505
0 -505 0 0 -660z"/>
<path d="M36550 701 l0 -661 90 0 90 0 0 286 0 285 273 -3 c259 -3 274 -4 314
-25 40 -22 72 -57 87 -98 4 -11 14 -111 21 -222 7 -110 16 -206 19 -212 9 -14
236 -15 236 -1 0 5 -11 20 -24 33 -35 35 -44 81 -55 272 -10 202 -22 240 -89
291 -25 18 -51 34 -58 34 -22 0 -16 14 14 32 49 29 104 92 130 147 20 45 25
70 25 140 1 101 -12 150 -53 213 -35 52 -84 89 -161 121 -52 21 -68 22 -456
25 l-403 3 0 -660z m776 485 c83 -39 120 -112 111 -221 -6 -86 -36 -136 -101
-172 l-51 -28 -277 -3 -278 -3 0 225 0 226 273 0 c265 0 273 -1 323 -24z"/>
<path d="M39370 700 l0 -660 90 0 90 0 0 660 0 660 -90 0 -90 0 0 -660z"/>
<path d="M40266 1351 c-6 -10 -516 -1302 -516 -1308 0 -1 42 -3 94 -3 l93 0
75 198 75 197 269 3 c147 1 271 -1 276 -6 5 -5 39 -94 77 -198 l69 -189 102
-3 c94 -2 101 -1 96 15 -3 10 -115 306 -249 658 l-243 640 -106 3 c-59 1 -109
-2 -112 -7z m213 -485 c56 -153 101 -280 101 -282 0 -2 -97 -4 -215 -4 -139 0
-215 4 -215 10 0 8 145 398 206 553 3 10 10 15 14 10 4 -4 53 -133 109 -287z"/>
<path d="M41160 700 l0 -660 440 0 440 0 0 75 0 75 -350 0 -350 0 0 585 0 585
-90 0 -90 0 0 -660z"/>
<path d="M42710 699 l0 -660 348 3 c328 4 350 5 406 26 83 31 134 63 188 119
91 94 154 233 179 393 14 94 6 285 -16 365 -41 149 -147 291 -262 353 -109 57
-147 62 -512 62 l-331 0 0 -661z m722 473 c77 -38 120 -82 160 -167 39 -84 58
-181 58 -300 0 -119 -19 -216 -59 -300 -39 -85 -91 -139 -169 -177 l-66 -33
-228 -3 -228 -4 0 512 0 512 233 -4 233 -3 66 -33z"/>
<path d="M44120 700 l0 -660 510 0 510 0 0 75 0 75 -420 0 -420 0 0 230 0 230
380 0 380 0 0 75 0 75 -380 0 -380 0 0 205 0 205 415 0 415 0 0 75 0 75 -505
0 -505 0 0 -660z"/>
<path d="M45400 700 l0 -660 440 0 440 0 0 75 0 75 -350 0 -350 0 0 585 0 585
-90 0 -90 0 0 -660z"/>
<path d="M46960 700 l0 -660 90 0 90 0 0 280 0 280 248 0 c334 0 396 14 489
106 157 158 146 448 -22 576 -96 73 -129 78 -536 78 l-359 0 0 -660z m698 495
c63 -19 113 -66 130 -122 18 -59 15 -151 -7 -198 -22 -49 -43 -68 -106 -97
-47 -22 -65 -23 -292 -26 l-243 -4 0 231 0 231 233 0 c181 0 245 -3 285 -15z"/>
<path d="M48237 707 c-141 -359 -257 -656 -257 -660 0 -4 42 -7 93 -7 l92 0
59 158 c32 86 67 176 77 200 l18 42 272 -2 272 -3 71 -197 71 -198 102 0 103
0 -24 63 c-95 251 -466 1225 -471 1240 -6 15 -22 17 -114 17 l-107 0 -257
-653z m467 162 l103 -284 -215 -3 c-118 -1 -216 -1 -218 1 -3 2 180 494 206
556 6 13 13 21 16 19 2 -3 51 -133 108 -289z"/>
<path d="M50830 700 l0 -660 90 0 90 0 0 660 0 660 -90 0 -90 0 0 -660z"/>
<path d="M51340 700 l0 -660 90 0 90 0 0 300 0 300 345 0 345 0 0 80 0 80
-345 0 -345 0 2 203 3 202 388 3 387 2 0 75 0 75 -480 0 -480 0 0 -660z"/>
<path d="M52550 700 l0 -660 90 0 90 0 0 660 0 660 -90 0 -90 0 0 -660z"/>
<path d="M58473 718 c-139 -354 -256 -651 -259 -661 -6 -15 3 -17 88 -17 l94
0 75 198 74 197 274 0 274 0 72 -195 71 -195 102 -3 c56 -1 102 -1 102 0 0 2
-112 298 -249 658 l-249 655 -109 3 -108 3 -252 -643z m463 149 c57 -155 102
-283 100 -284 -2 -2 -100 -2 -218 -1 l-216 3 104 275 c57 151 106 281 109 289
3 8 9 11 12 7 4 -4 53 -133 109 -289z"/>
<path d="M57800 135 l0 -95 100 0 100 0 0 95 0 95 -100 0 -100 0 0 -95z"/>
<path d="M59630 135 l0 -95 100 0 100 0 0 95 0 95 -100 0 -100 0 0 -95z"/>
</g>
</svg>
